{
	"asset":{
		"generator":"Khronos glTF Blender I/O v4.1.63",
		"version":"2.0"
	},
	"scene":0,
	"scenes":[
		{
			"name":"Scene",
			"nodes":[
				0
			]
		}
	],
	"nodes":[
		{
			"mesh":0,
			"name":"Cube",
			"rotation":[
				0,
				-1,
				0,
				4.5964805312631585e-14
			],
			"scale":[
				1.9893214702606201,
				0.15156514942646027,
				1.1736111640930176
			]
		}
	],
	"materials":[
		{
			"doubleSided":true,
			"name":"Material",
			"pbrMetallicRoughness":{
				"baseColorFactor":[
					0.800000011920929,
					0.800000011920929,
					0.800000011920929,
					1
				],
				"metallicFactor":0,
				"roughnessFactor":0.5
			}
		}
	],
	"meshes":[
		{
			"name":"Cube",
			"primitives":[
				{
					"attributes":{
						"POSITION":0,
						"NORMAL":1,
						"TEXCOORD_0":2
					},
					"indices":3,
					"material":0
				}
			]
		}
	],
	"accessors":[
		{
			"bufferView":0,
			"componentType":5126,
			"count":261,
			"max":[
				1.1576391458511353,
				0.9999998807907104,
				0.9999998807907104
			],
			"min":[
				-1.1576391458511353,
				-18.7611141204834,
				-0.9999998807907104
			],
			"type":"VEC3"
		},
		{
			"bufferView":1,
			"componentType":5126,
			"count":261,
			"type":"VEC3"
		},
		{
			"bufferView":2,
			"componentType":5126,
			"count":261,
			"type":"VEC2"
		},
		{
			"bufferView":3,
			"componentType":5123,
			"count":582,
			"type":"SCALAR"
		}
	],
	"bufferViews":[
		{
			"buffer":0,
			"byteLength":3132,
			"byteOffset":0,
			"target":34962
		},
		{
			"buffer":0,
			"byteLength":3132,
			"byteOffset":3132,
			"target":34962
		},
		{
			"buffer":0,
			"byteLength":2088,
			"byteOffset":6264,
			"target":34962
		},
		{
			"buffer":0,
			"byteLength":1164,
			"byteOffset":8352,
			"target":34963
		}
	],
	"buffers":[
		{
			"byteLength":9516,
			"uri":"untitled2.bin"
		}
	]
}
